<svg xmlns="http://www.w3.org/2000/svg" viewBox="0 0 512 512"><defs>
<linearGradient id="emerald" x1="0" y1="0" x2="1" y2="1"><stop offset="0" stop-color="#1c9460"/><stop offset=".55" stop-color="#0d4a30"/><stop offset="1" stop-color="#062116"/></linearGradient>
<radialGradient id="glow" cx=".3" cy=".2" r=".8"><stop offset="0" stop-color="#ffffff" stop-opacity=".28"/><stop offset=".6" stop-color="#ffffff" stop-opacity="0"/></radialGradient>
<linearGradient id="gold" x1="0" y1="0" x2="0" y2="1"><stop offset="0" stop-color="#fff1b8"/><stop offset=".35" stop-color="#f2c94c"/><stop offset=".7" stop-color="#c8911a"/><stop offset="1" stop-color="#f6d77a"/></linearGradient>
<linearGradient id="goldH" x1="0" y1="0" x2="1" y2="0"><stop offset="0" stop-color="#c8911a"/><stop offset=".5" stop-color="#ffe9a3"/><stop offset="1" stop-color="#c8911a"/></linearGradient>
<radialGradient id="ball" cx=".35" cy=".3" r=".75"><stop offset="0" stop-color="#ffffff"/><stop offset=".6" stop-color="#eef3ef"/><stop offset="1" stop-color="#b9c9bf"/></radialGradient>
<radialGradient id="dimple" cx=".6" cy=".65" r=".7"><stop offset="0" stop-color="#ffffff"/><stop offset="1" stop-color="#b6c6bc"/></radialGradient>
<filter id="shadow" x="-30%" y="-30%" width="160%" height="160%"><feDropShadow dx="0" dy="10" stdDeviation="12" flood-color="#021109" flood-opacity=".55"/></filter>
<filter id="soft" x="-20%" y="-20%" width="140%" height="140%"><feDropShadow dx="0" dy="3" stdDeviation="3" flood-color="#021109" flood-opacity=".45"/></filter>
<clipPath id="sq"><rect width="512" height="512" rx="112"/></clipPath></defs>
<g clip-path="url(#sq)"><rect width="512" height="512" fill="url(#emerald)"/>
<g opacity=".06"><rect x="-260" y="-100" width="55" height="760" fill="#fff" transform="rotate(24 256 256)"/><rect x="-150" y="-100" width="55" height="760" fill="#fff" transform="rotate(24 256 256)"/><rect x="-40" y="-100" width="55" height="760" fill="#fff" transform="rotate(24 256 256)"/><rect x="70" y="-100" width="55" height="760" fill="#fff" transform="rotate(24 256 256)"/><rect x="180" y="-100" width="55" height="760" fill="#fff" transform="rotate(24 256 256)"/><rect x="290" y="-100" width="55" height="760" fill="#fff" transform="rotate(24 256 256)"/><rect x="400" y="-100" width="55" height="760" fill="#fff" transform="rotate(24 256 256)"/><rect x="510" y="-100" width="55" height="760" fill="#fff" transform="rotate(24 256 256)"/></g>
<rect width="512" height="512" fill="url(#glow)"/>
<defs><path id="top" d="M 106 256 A 150 150 0 0 1 406 256" fill="none"/><path id="bot" d="M 104 256 A 152 152 0 0 0 408 256" fill="none"/></defs>
<circle cx="256" cy="256" r="196" fill="#062116" opacity=".55"/>
<circle cx="256" cy="256" r="196" fill="none" stroke="url(#gold)" stroke-width="8"/>
<circle cx="256" cy="256" r="178" fill="none" stroke="url(#gold)" stroke-width="2" opacity=".8"/>
<circle cx="256" cy="256" r="122" fill="none" stroke="url(#gold)" stroke-width="2" opacity=".8"/>
<text font-family="Georgia, 'Times New Roman', serif" font-weight="700" font-size="40" letter-spacing="10" fill="url(#gold)"><textPath href="#top" startOffset="50%" text-anchor="middle">MY CADDIE</textPath></text>
<text font-family="Georgia, serif" font-size="22" letter-spacing="8" fill="#e9d38d" opacity=".9"><textPath href="#bot" startOffset="50%" text-anchor="middle" side="left">★ PERSONAL GOLF ★</textPath></text>
<g filter="url(#soft)" stroke-linecap="round">
 <line x1="184" y1="156" x2="318" y2="330" stroke="url(#goldH)" stroke-width="10"/>
 <rect x="176" y="146" width="16" height="34" rx="6" fill="#0b3522" stroke="url(#gold)" stroke-width="3" transform="rotate(-37.6 184 163)"/>
 <path d="M312 322 q 10 20 36 22 q 10 -2 6 -12 l -24 -26 z" fill="url(#gold)"/>
 <line x1="328" y1="156" x2="194" y2="330" stroke="url(#goldH)" stroke-width="10"/>
 <rect x="320" y="146" width="16" height="34" rx="6" fill="#0b3522" stroke="url(#gold)" stroke-width="3" transform="rotate(37.6 328 163)"/>
 <path d="M200 322 q -10 20 -36 22 q -10 -2 -6 -12 l 24 -26 z" fill="url(#gold)"/>
</g>
<g filter="url(#shadow)"><circle cx="256" cy="300" r="46" fill="url(#ball)"/><ellipse cx="238.06" cy="268.26" rx="2.5590558999999993" ry="1.8491565425238912" fill="url(#dimple)" opacity="0.6622227933547876"/><ellipse cx="250.02" cy="268.26" rx="2.8498034999999997" ry="2.1494675513565897" fill="url(#dimple)" opacity="0.6893581238214965"/><ellipse cx="261.98" cy="268.26" rx="2.8498034999999993" ry="2.1494675513565893" fill="url(#dimple)" opacity="0.6893581238214964"/><ellipse cx="273.94" cy="268.26" rx="2.5590558999999993" ry="1.8491565425238912" fill="url(#dimple)" opacity="0.6622227933547876"/><ellipse cx="232.07999999999998" cy="278.84" rx="2.873458999999998" ry="2.1752321132688373" fill="url(#dimple)" opacity="0.6917213405074825"/><ellipse cx="244.04" cy="278.84" rx="3.309580399999999" ry="2.697513791249086" fill="url(#dimple)" opacity="0.741481862236525"/><ellipse cx="256" cy="278.84" rx="3.454954199999999" ry="2.898706573799999" fill="url(#dimple)" opacity="0.7619999999999999"/><ellipse cx="267.96" cy="278.84" rx="3.3095803999999998" ry="2.6975137912490874" fill="url(#dimple)" opacity="0.7414818622365251"/><ellipse cx="279.92" cy="278.84" rx="2.873458999999998" ry="2.1752321132688373" fill="url(#dimple)" opacity="0.6917213405074825"/><ellipse cx="226.1" cy="289.42" rx="2.8876523" ry="2.1907971210364123" fill="url(#dimple)" opacity="0.6931522298887416"/><ellipse cx="238.06" cy="289.42" rx="3.4691475000000005" ry="2.919394332513636" fill="url(#dimple)" opacity="0.7641692229279389"/><ellipse cx="250.02" cy="289.42" rx="3.7598951000000005" ry="3.412221684494493" fill="url(#dimple)" opacity="0.8207409311182627"/><ellipse cx="261.98" cy="289.42" rx="3.7598951000000005" ry="3.4122216844944924" fill="url(#dimple)" opacity="0.8207409311182626"/><ellipse cx="273.94" cy="289.42" rx="3.4691475000000005" ry="2.919394332513636" fill="url(#dimple)" opacity="0.7641692229279389"/><ellipse cx="285.9" cy="289.42" rx="2.887652300000002" ry="2.1907971210364146" fill="url(#dimple)" opacity="0.6931522298887418"/><ellipse cx="220.12" cy="300" rx="2.6016358000000004" ry="1.8913892266000005" fill="url(#dimple)" opacity="0.666"/><ellipse cx="232.07999999999998" cy="300" rx="3.3285047999999993" ry="2.722716926399999" fill="url(#dimple)" opacity="0.7439999999999999"/><ellipse cx="244.04" cy="300" rx="3.7646262" ry="3.4220452157999994" fill="url(#dimple)" opacity="0.822"/><ellipse cx="256" cy="300" rx="3.91" ry="3.91" fill="url(#dimple)" opacity="0.9"/><ellipse cx="267.96" cy="300" rx="3.764626200000001" ry="3.422045215800001" fill="url(#dimple)" opacity="0.8220000000000002"/><ellipse cx="279.92" cy="300" rx="3.3285047999999993" ry="2.722716926399999" fill="url(#dimple)" opacity="0.7439999999999999"/><ellipse cx="291.88" cy="300" rx="2.6016358000000004" ry="1.8913892266000005" fill="url(#dimple)" opacity="0.666"/><ellipse cx="226.1" cy="310.58" rx="2.8876523" ry="2.1907971210364123" fill="url(#dimple)" opacity="0.6931522298887416"/><ellipse cx="238.06" cy="310.58" rx="3.4691475000000005" ry="2.919394332513636" fill="url(#dimple)" opacity="0.7641692229279389"/><ellipse cx="250.02" cy="310.58" rx="3.7598951000000005" ry="3.412221684494493" fill="url(#dimple)" opacity="0.8207409311182627"/><ellipse cx="261.98" cy="310.58" rx="3.7598951000000005" ry="3.4122216844944924" fill="url(#dimple)" opacity="0.8207409311182626"/><ellipse cx="273.94" cy="310.58" rx="3.4691475000000005" ry="2.919394332513636" fill="url(#dimple)" opacity="0.7641692229279389"/><ellipse cx="285.9" cy="310.58" rx="2.887652300000002" ry="2.1907971210364146" fill="url(#dimple)" opacity="0.6931522298887418"/><ellipse cx="232.07999999999998" cy="321.16" rx="2.873458999999998" ry="2.1752321132688373" fill="url(#dimple)" opacity="0.6917213405074825"/><ellipse cx="244.04" cy="321.16" rx="3.309580399999999" ry="2.697513791249086" fill="url(#dimple)" opacity="0.741481862236525"/><ellipse cx="256" cy="321.16" rx="3.454954199999999" ry="2.898706573799999" fill="url(#dimple)" opacity="0.7619999999999999"/><ellipse cx="267.96" cy="321.16" rx="3.3095803999999998" ry="2.6975137912490874" fill="url(#dimple)" opacity="0.7414818622365251"/><ellipse cx="279.92" cy="321.16" rx="2.873458999999998" ry="2.1752321132688373" fill="url(#dimple)" opacity="0.6917213405074825"/><ellipse cx="238.06" cy="331.74" rx="2.5590558999999993" ry="1.8491565425238912" fill="url(#dimple)" opacity="0.6622227933547876"/><ellipse cx="250.02" cy="331.74" rx="2.8498034999999997" ry="2.1494675513565897" fill="url(#dimple)" opacity="0.6893581238214965"/><ellipse cx="261.98" cy="331.74" rx="2.8498034999999993" ry="2.1494675513565893" fill="url(#dimple)" opacity="0.6893581238214964"/><ellipse cx="273.94" cy="331.74" rx="2.5590558999999993" ry="1.8491565425238912" fill="url(#dimple)" opacity="0.6622227933547876"/>
    <ellipse cx="239.9" cy="280.68" rx="14.72" ry="8.28" fill="#fff" opacity=".7" transform="rotate(-30 239.9 280.68)"/></g></g>
<rect x="6" y="6" width="500" height="500" rx="106" fill="none" stroke="url(#goldH)" stroke-opacity=".55" stroke-width="4"/></svg>